<svg width="32" height="32" viewBox="0 0 256 256" fill="none" xmlns="http://www.w3.org/2000/svg">
  <rect width="256" height="256" fill="#161415"/>
  <rect x="13.5" y="13.5" width="229" height="229" fill="#161415" stroke="#FAF8F4" stroke-width="3"/>
  <path d="M131.851 31C144.116 31 155.055 34.0129 164.668 40.0386C174.282 46.0643 181.74 54.4825 187.044 65.2934C192.348 76.1042 195 88.5101 195 102.511C195 116.335 192.348 128.652 187.044 139.463C181.906 150.096 174.53 158.426 164.917 164.452C155.47 170.3 144.613 173.225 132.348 173.225C121.243 173.225 111.464 170.743 103.011 165.781C94.558 160.819 87.9282 153.73 83.1215 144.514V224H60V31.7975H83.1215V59.7107C87.9282 50.4949 94.4751 43.4059 102.762 38.4435C111.215 33.4812 120.912 31 131.851 31ZM127.376 151.691C135.829 151.691 143.37 149.565 150 145.311C156.796 141.058 162.017 135.121 165.663 127.5C169.475 119.879 171.381 111.284 171.381 101.713C171.381 92.3205 169.475 83.8136 165.663 76.1928C161.851 68.5721 156.63 62.635 150 58.3815C143.37 54.1281 135.829 52.0014 127.376 52.0014C118.923 52.0014 111.298 54.1281 104.503 58.3815C97.8729 62.635 92.6519 68.5721 88.8398 76.1928C85.0276 83.8136 83.1215 92.3205 83.1215 101.713C83.1215 111.461 85.0276 120.145 88.8398 127.766C92.6519 135.209 97.8729 141.058 104.503 145.311C111.298 149.565 118.923 151.691 127.376 151.691Z" fill="#FAF8F4"/>
</svg>