<svg width="105" height="60" viewBox="0 0 105 60" fill="none" xmlns="http://www.w3.org/2000/svg">
<path d="M11.7298 53.0674C12.1958 53.0674 12.6114 53.1756 12.9766 53.3922C13.3418 53.6088 13.6252 53.9113 13.8267 54.2998C14.0282 54.6884 14.129 55.1342 14.129 55.6374C14.129 56.1342 14.0282 56.5769 13.8267 56.9654C13.6315 57.3476 13.3513 57.647 12.9861 57.8635C12.6271 58.0737 12.2147 58.1788 11.7487 58.1788C11.3268 58.1788 10.9552 58.0896 10.6341 57.9113C10.3129 57.733 10.0611 57.4782 9.87844 57.147V60.0037H9V53.096H9.87844V54.0992C10.0611 53.768 10.3098 53.5132 10.6246 53.3349C10.9458 53.1565 11.3142 53.0674 11.7298 53.0674ZM11.5598 57.4049C11.8809 57.4049 12.1674 57.3285 12.4193 57.1756C12.6775 57.0228 12.8759 56.8094 13.0144 56.5355C13.1592 56.2616 13.2316 55.9527 13.2316 55.6088C13.2316 55.2712 13.1592 54.9654 13.0144 54.6916C12.8696 54.4177 12.6712 54.2043 12.4193 54.0514C12.1674 53.8986 11.8809 53.8221 11.5598 53.8221C11.2386 53.8221 10.9489 53.8986 10.6908 54.0514C10.4389 54.2043 10.2405 54.4177 10.0957 54.6916C9.95086 54.9654 9.87844 55.2712 9.87844 55.6088C9.87844 55.9591 9.95086 56.2712 10.0957 56.5451C10.2405 56.8126 10.4389 57.0228 10.6908 57.1756C10.9489 57.3285 11.2386 57.4049 11.5598 57.4049Z" fill="#161415"/>
<path d="M16.7996 54.1852C16.9633 53.8221 17.1963 53.5482 17.4986 53.3635C17.8008 53.1725 18.1598 53.0737 18.5754 53.0674V53.9272C18.0653 53.9081 17.6528 54.0419 17.338 54.3285C17.0231 54.6151 16.8437 55.0005 16.7996 55.4846V58.1502H15.9211V53.096H16.7996V54.1852Z" fill="#161415"/>
<path d="M22.097 53.0674C22.8716 53.0674 23.4572 53.2998 23.8539 53.7648C24.2506 54.2234 24.449 54.8635 24.449 55.6852C24.449 55.8126 24.4458 55.9081 24.4395 55.9718H20.4913C20.5605 56.424 20.7463 56.7839 21.0486 57.0514C21.3571 57.3189 21.7349 57.4527 22.182 57.4527C22.478 57.4527 22.7519 57.3986 23.0038 57.2903C23.262 57.182 23.4855 57.0291 23.6744 56.8317L24.1562 57.3381C23.9106 57.6056 23.6146 57.8126 23.2683 57.9591C22.9219 58.1056 22.5378 58.1788 22.1159 58.1788C21.6247 58.1788 21.1871 58.0737 20.803 57.8635C20.4252 57.647 20.1292 57.3444 19.9151 56.9559C19.7073 56.5674 19.6034 56.1247 19.6034 55.6279C19.6034 55.1311 19.7073 54.6916 19.9151 54.3094C20.1292 53.9209 20.4252 53.6183 20.803 53.4018C21.1808 53.1788 21.6122 53.0674 22.097 53.0674ZM23.6556 55.2839C23.6304 54.8253 23.4792 54.4654 23.2022 54.2043C22.9251 53.9368 22.5599 53.803 22.1065 53.803C21.6657 53.803 21.2973 53.9368 21.0013 54.2043C20.7117 54.4718 20.5385 54.8317 20.4818 55.2839H23.6556Z" fill="#161415"/>
<path d="M32.6657 53.0674C33.2387 53.0674 33.6889 53.2425 34.0164 53.5928C34.3438 53.9432 34.5076 54.4209 34.5076 55.026V58.1502H33.6197V55.2648C33.6197 54.8381 33.5032 54.5037 33.2702 54.2616C33.0435 54.0196 32.7286 53.8986 32.3256 53.8986C31.8533 53.9113 31.4818 54.0801 31.211 54.4049C30.9403 54.7298 30.8049 55.147 30.8049 55.6565V58.1502H29.917V55.2648C29.917 54.8381 29.8036 54.5037 29.5769 54.2616C29.3502 54.0196 29.0322 53.8986 28.6229 53.8986C28.1506 53.9113 27.776 54.0801 27.4989 54.4049C27.2281 54.7298 27.0927 55.147 27.0927 55.6565V58.1502H26.2143V53.096H27.0927V54.1565C27.4202 53.4432 28.0404 53.0801 28.9535 53.0674C29.4132 53.0674 29.7942 53.1788 30.0964 53.4018C30.405 53.6247 30.6128 53.9368 30.7199 54.3381C31.0284 53.5037 31.677 53.0801 32.6657 53.0674Z" fill="#161415"/>
<path d="M36.6417 53.096H37.5202V58.1502H36.6417V53.096ZM37.0762 51.0801C37.2337 51.0801 37.3628 51.1342 37.4635 51.2425C37.5706 51.3508 37.6241 51.4877 37.6241 51.6533C37.6241 51.8189 37.5706 51.9559 37.4635 52.0642C37.3628 52.1725 37.2337 52.2266 37.0762 52.2266C36.9188 52.2266 36.7866 52.1725 36.6795 52.0642C36.5788 51.9559 36.5284 51.8189 36.5284 51.6533C36.5284 51.4877 36.5788 51.3508 36.6795 51.2425C36.7866 51.1342 36.9188 51.0801 37.0762 51.0801Z" fill="#161415"/>
<path d="M44.2211 53.096V58.1502H43.3332V57.0801C43.0057 57.7998 42.3886 58.1661 41.4818 58.1788C40.9025 58.1788 40.4491 58.0068 40.1217 57.6629C39.7942 57.3126 39.6305 56.8317 39.6305 56.2202V53.096H40.5184V55.9814C40.5184 56.4081 40.6317 56.7425 40.8584 56.9846C41.0914 57.2202 41.4094 57.3381 41.8124 57.3381C42.2784 57.3317 42.6468 57.1661 42.9176 56.8412C43.1946 56.51 43.3332 56.0896 43.3332 55.5801V53.096H44.2211Z" fill="#161415"/>
<path d="M52.9527 53.0674C53.5258 53.0674 53.976 53.2425 54.3034 53.5928C54.6309 53.9432 54.7946 54.4209 54.7946 55.026V58.1502H53.9067V55.2648C53.9067 54.8381 53.7902 54.5037 53.5572 54.2616C53.3306 54.0196 53.0157 53.8986 52.6127 53.8986C52.1404 53.9113 51.7689 54.0801 51.4981 54.4049C51.2273 54.7298 51.0919 55.147 51.0919 55.6565V58.1502H50.204V55.2648C50.204 54.8381 50.0907 54.5037 49.864 54.2616C49.6373 54.0196 49.3193 53.8986 48.91 53.8986C48.4377 53.9113 48.063 54.0801 47.786 54.4049C47.5152 54.7298 47.3798 55.147 47.3798 55.6565V58.1502H46.5014V53.096H47.3798V54.1565C47.7073 53.4432 48.3275 53.0801 49.2406 53.0674C49.7003 53.0674 50.0813 53.1788 50.3835 53.4018C50.6921 53.6247 50.8999 53.9368 51.0069 54.3381C51.3155 53.5037 51.9641 53.0801 52.9527 53.0674Z" fill="#161415"/>
<path d="M61.8096 51.7967C61.5829 51.7967 61.3939 51.8667 61.2428 52.0068C61.0917 52.147 61.0161 52.3476 61.0161 52.6088V53.268H62.3952V53.9463H61.0161V58.1502H60.1377V53.9463H59.4859V53.268H60.1377V52.7234C60.1377 52.354 60.2132 52.0419 60.3644 51.7871C60.5218 51.526 60.7265 51.3317 60.9783 51.2043C61.2302 51.0705 61.501 51.0037 61.7907 51.0037C62.0677 51.0037 62.3574 51.0801 62.6597 51.233L62.4519 51.9591C62.2252 51.8508 62.0111 51.7967 61.8096 51.7967ZM63.1981 53.096H64.0765V58.1502H63.1981V53.096ZM63.6326 51.0801C63.79 51.0801 63.9191 51.1342 64.0198 51.2425C64.1269 51.3508 64.1804 51.4877 64.1804 51.6533C64.1804 51.8189 64.1269 51.9559 64.0198 52.0642C63.9191 52.1725 63.79 52.2266 63.6326 52.2266C63.4751 52.2266 63.3429 52.1725 63.2358 52.0642C63.1351 51.9559 63.0847 51.8189 63.0847 51.6533C63.0847 51.4877 63.1351 51.3508 63.2358 51.2425C63.3429 51.1342 63.4751 51.0801 63.6326 51.0801Z" fill="#161415"/>
<path d="M69.1319 53.0674C69.7175 53.0674 70.1772 53.2425 70.511 53.5928C70.8447 53.9368 71.0116 54.4145 71.0116 55.026V58.1502H70.1331V55.2648C70.1331 54.8381 70.0135 54.5068 69.7742 54.2712C69.5412 54.0291 69.2169 53.9081 68.8013 53.9081C68.3542 53.9145 67.989 54.061 67.7056 54.3476C67.4285 54.6279 67.2711 54.9941 67.2333 55.4463V58.1502H66.3549V53.096H67.2333V54.1661C67.5671 53.4463 68.1999 53.0801 69.1319 53.0674Z" fill="#161415"/>
<path d="M76.1989 58.1502V57.4432C75.8274 57.94 75.2449 58.1884 74.4515 58.1884C74.1052 58.1884 73.7997 58.1215 73.5353 57.9877C73.2771 57.854 73.0756 57.6693 72.9307 57.4336C72.7922 57.1979 72.7229 56.9336 72.7229 56.6406C72.7229 56.1884 72.8867 55.8317 73.2141 55.5705C73.5479 55.303 74.0107 55.1661 74.6026 55.1597H76.1895V54.9209C76.1895 54.5642 76.0793 54.2903 75.8589 54.0992C75.6448 53.9018 75.3299 53.803 74.9143 53.803C74.4106 53.803 73.8974 53.9846 73.3747 54.3476L73.0063 53.7361C73.3652 53.5005 73.6958 53.3317 73.9981 53.2298C74.3067 53.1215 74.6719 53.0674 75.0938 53.0674C75.7172 53.0674 76.1989 53.2234 76.539 53.5355C76.879 53.8412 77.0522 54.2712 77.0585 54.8253L77.0679 58.1502H76.1989ZM74.631 57.4527C75.0403 57.4527 75.3866 57.354 75.67 57.1565C75.9596 56.9527 76.1328 56.6852 76.1895 56.354V55.8476H74.7254C74.3287 55.8476 74.0327 55.9081 73.8375 56.0291C73.6486 56.1502 73.5542 56.3412 73.5542 56.6024C73.5542 56.8635 73.6518 57.0705 73.847 57.2234C74.0422 57.3763 74.3035 57.4527 74.631 57.4527Z" fill="#161415"/>
<path d="M81.9802 53.0674C82.5658 53.0674 83.0255 53.2425 83.3592 53.5928C83.693 53.9368 83.8599 54.4145 83.8599 55.026V58.1502H82.9814V55.2648C82.9814 54.8381 82.8618 54.5068 82.6225 54.2712C82.3895 54.0291 82.0652 53.9081 81.6496 53.9081C81.2025 53.9145 80.8372 54.061 80.5539 54.3476C80.2768 54.6279 80.1194 54.9941 80.0816 55.4463V58.1502H79.2032V53.096H80.0816V54.1661C80.4153 53.4463 81.0482 53.0801 81.9802 53.0674Z" fill="#161415"/>
<path d="M89.5006 54.4432C89.1039 54.0546 88.6284 53.8603 88.0743 53.8603C87.7469 53.8603 87.454 53.9336 87.1959 54.0801C86.944 54.2266 86.7456 54.4336 86.6008 54.7011C86.4559 54.9686 86.3835 55.2775 86.3835 55.6279C86.3835 55.9782 86.4528 56.2871 86.5913 56.5546C86.7362 56.8221 86.9314 57.0323 87.177 57.1852C87.4288 57.3317 87.7154 57.4049 88.0365 57.4049C88.3577 57.4049 88.6473 57.3508 88.9055 57.2425C89.1637 57.1342 89.3778 56.9782 89.5478 56.7744L90.0484 57.2903C89.8217 57.5769 89.5321 57.7967 89.1794 57.9495C88.8331 58.1024 88.4395 58.1788 87.9987 58.1788C87.5139 58.1788 87.0825 58.0705 86.7047 57.854C86.3269 57.6374 86.0309 57.3381 85.8168 56.9559C85.609 56.5674 85.5051 56.1247 85.5051 55.6279C85.5051 55.1311 85.609 54.6884 85.8168 54.2998C86.0309 53.9113 86.3269 53.6088 86.7047 53.3922C87.0825 53.1756 87.5139 53.0674 87.9987 53.0674C88.4206 53.0674 88.7985 53.1342 89.1322 53.268C89.4723 53.3954 89.7556 53.5833 89.9823 53.8317L89.5006 54.4432Z" fill="#161415"/>
<path d="M93.648 53.0674C94.4226 53.0674 95.0082 53.2998 95.4049 53.7648C95.8016 54.2234 96 54.8635 96 55.6852C96 55.8126 95.9969 55.9081 95.9906 55.9718H92.0423C92.1116 56.424 92.2973 56.7839 92.5996 57.0514C92.9081 57.3189 93.286 57.4527 93.7331 57.4527C94.029 57.4527 94.3029 57.3986 94.5548 57.2903C94.813 57.182 95.0365 57.0291 95.2255 56.8317L95.7072 57.3381C95.4616 57.6056 95.1656 57.8126 94.8193 57.9591C94.473 58.1056 94.0888 58.1788 93.6669 58.1788C93.1758 58.1788 92.7381 58.0737 92.354 57.8635C91.9762 57.647 91.6802 57.3444 91.4661 56.9559C91.2583 56.5674 91.1544 56.1247 91.1544 55.6279C91.1544 55.1311 91.2583 54.6916 91.4661 54.3094C91.6802 53.9209 91.9762 53.6183 92.354 53.4018C92.7318 53.1788 93.1632 53.0674 93.648 53.0674ZM95.2066 55.2839C95.1814 54.8253 95.0303 54.4654 94.7532 54.2043C94.4761 53.9368 94.1109 53.803 93.6575 53.803C93.2167 53.803 92.8483 53.9368 92.5524 54.2043C92.2627 54.4718 92.0895 54.8317 92.0328 55.2839H95.2066Z" fill="#161415"/>
<rect x="0.5" y="0.5" width="104" height="44" stroke="#161415"/>
<path d="M18.248 13.72C19.8267 13.72 21.2347 14.0827 22.472 14.808C23.7093 15.5333 24.6693 16.5467 25.352 17.848C26.0347 19.1493 26.376 20.6427 26.376 22.328C26.376 23.992 26.0347 25.4747 25.352 26.776C24.6907 28.056 23.7413 29.0587 22.504 29.784C21.288 30.488 19.8907 30.84 18.312 30.84C16.8827 30.84 15.624 30.5413 14.536 29.944C13.448 29.3467 12.5947 28.4933 11.976 27.384V36.952H9V13.816H11.976V17.176C12.5947 16.0667 13.4373 15.2133 14.504 14.616C15.592 14.0187 16.84 13.72 18.248 13.72ZM17.672 28.248C18.76 28.248 19.7307 27.992 20.584 27.48C21.4587 26.968 22.1307 26.2533 22.6 25.336C23.0907 24.4187 23.336 23.384 23.336 22.232C23.336 21.1013 23.0907 20.0773 22.6 19.16C22.1093 18.2427 21.4373 17.528 20.584 17.016C19.7307 16.504 18.76 16.248 17.672 16.248C16.584 16.248 15.6027 16.504 14.728 17.016C13.8747 17.528 13.2027 18.2427 12.712 19.16C12.2213 20.0773 11.976 21.1013 11.976 22.232C11.976 23.4053 12.2213 24.4507 12.712 25.368C13.2027 26.264 13.8747 26.968 14.728 27.48C15.6027 27.992 16.584 28.248 17.672 28.248Z" fill="#161415"/>
<path d="M40.8635 30.744V28.376C39.6048 30.04 37.6315 30.872 34.9435 30.872C33.7702 30.872 32.7355 30.648 31.8395 30.2C30.9648 29.752 30.2822 29.1333 29.7915 28.344C29.3222 27.5547 29.0875 26.6693 29.0875 25.688C29.0875 24.1733 29.6422 22.9787 30.7515 22.104C31.8822 21.208 33.4502 20.7493 35.4555 20.728H40.8315V19.928C40.8315 18.7333 40.4582 17.816 39.7115 17.176C38.9862 16.5147 37.9195 16.184 36.5115 16.184C34.8048 16.184 33.0662 16.792 31.2955 18.008L30.0475 15.96C31.2635 15.1707 32.3835 14.6053 33.4075 14.264C34.4528 13.9013 35.6902 13.72 37.1195 13.72C39.2315 13.72 40.8635 14.2427 42.0155 15.288C43.1675 16.312 43.7542 17.752 43.7755 19.608L43.8075 30.744H40.8635ZM35.5515 28.408C36.9382 28.408 38.1115 28.0773 39.0715 27.416C40.0528 26.7333 40.6395 25.8373 40.8315 24.728V23.032H35.8715C34.5275 23.032 33.5248 23.2347 32.8635 23.64C32.2235 24.0453 31.9035 24.6853 31.9035 25.56C31.9035 26.4347 32.2342 27.128 32.8955 27.64C33.5568 28.152 34.4422 28.408 35.5515 28.408Z" fill="#161415"/>
<path d="M58.2093 29.624C56.9079 30.456 55.5853 30.872 54.2412 30.872C52.8972 30.872 51.8092 30.4773 50.9772 29.688C50.1452 28.8773 49.7293 27.6613 49.7293 26.04V16.664H47.3293V14.392H49.7293V9.848H52.7373V14.392H57.9212V16.664H52.7373V25.496C52.7373 26.4347 52.9079 27.1067 53.2493 27.512C53.5906 27.9173 54.1026 28.12 54.7853 28.12C55.5959 28.12 56.4706 27.8533 57.4093 27.32L58.2093 29.624Z" fill="#161415"/>
<path d="M73.4932 18.328C72.1492 17.0267 70.5386 16.376 68.6613 16.376C67.5519 16.376 66.5599 16.6213 65.6852 17.112C64.8319 17.6027 64.1599 18.296 63.6693 19.192C63.1786 20.088 62.9333 21.1227 62.9333 22.296C62.9333 23.4693 63.1679 24.504 63.6372 25.4C64.1279 26.296 64.7892 27 65.6213 27.512C66.4746 28.0027 67.4452 28.248 68.5332 28.248C69.6213 28.248 70.6026 28.0667 71.4772 27.704C72.3519 27.3413 73.0773 26.8187 73.6533 26.136L75.3493 27.864C74.5813 28.824 73.5999 29.56 72.4053 30.072C71.2319 30.584 69.8986 30.84 68.4053 30.84C66.7626 30.84 65.3013 30.4773 64.0213 29.752C62.7413 29.0267 61.7386 28.024 61.0132 26.744C60.3092 25.4427 59.9572 23.96 59.9572 22.296C59.9572 20.632 60.3092 19.1493 61.0132 17.848C61.7386 16.5467 62.7413 15.5333 64.0213 14.808C65.3013 14.0827 66.7626 13.72 68.4053 13.72C69.8346 13.72 71.1146 13.944 72.2453 14.392C73.3972 14.8187 74.3573 15.448 75.1253 16.28L73.4932 18.328Z" fill="#161415"/>
<path d="M89.19 13.72C91.174 13.72 92.7313 14.3067 93.862 15.48C94.9927 16.632 95.558 18.232 95.558 20.28V30.744H92.582V21.08C92.582 19.6507 92.1767 18.5413 91.366 17.752C90.5767 16.9413 89.478 16.536 88.07 16.536C86.4273 16.5573 85.126 17.112 84.166 18.2C83.206 19.288 82.726 20.696 82.726 22.424V30.744H79.75V7H82.726V17.464C83.8567 15.0107 86.0113 13.7627 89.19 13.72Z" fill="#161415"/>
</svg>